<svg width="24" height="24" viewBox="0 0 24 24" fill="none" xmlns="http://www.w3.org/2000/svg">
<path fill-rule="evenodd" clip-rule="evenodd" d="M5.81805 14.1213C7.85764 15.5778 9.97619 16.3477 11.9447 16.3477C13.9132 16.3477 16.0317 15.5778 18.0713 14.1213C19.596 13.0325 20.537 11.9538 20.5763 11.9084C20.7374 11.7224 20.7374 11.4463 20.5763 11.2603C20.537 11.2148 19.596 10.1361 18.0713 9.04735C16.0317 7.59092 13.9131 6.82104 11.9447 6.82104C9.97623 6.82104 7.85768 7.59096 5.81805 9.04735C4.29331 10.1361 3.35228 11.2149 3.31296 11.2603C3.15186 11.4463 3.15186 11.7224 3.31296 11.9084C3.35228 11.9539 4.29335 13.0325 5.81805 14.1213ZM6.41284 13.3297C5.46453 12.6549 4.74629 11.9725 4.36573 11.5845C4.74637 11.1963 5.46465 10.5139 6.41284 9.83923C7.71293 8.91408 9.72796 7.81121 11.9446 7.81121C14.1612 7.81121 16.1762 8.91408 17.4763 9.83923C18.4246 10.5141 19.1429 11.1964 19.5234 11.5845C19.1428 11.9726 18.4245 12.655 17.4763 13.3297C16.1762 14.2548 14.1612 15.3577 11.9446 15.3577C9.72796 15.3577 7.71293 14.2548 6.41284 13.3297Z" fill="#486082"/>
<circle cx="12.0383" cy="11.5835" r="2.94872" fill="#486082"/>
<path d="M14.5027 11.7207C13.9568 11.7207 13.5127 11.2766 13.5127 10.7307C13.5127 10.1848 13.9568 9.74072 14.5027 9.74072C15.0486 9.74072 15.4927 10.1848 15.4927 10.7307C15.4927 11.2766 15.0486 11.7207 14.5027 11.7207Z" fill="white"/>
</svg>
